<svg width="32" height="32" viewBox="0 0 32 32" fill="none" xmlns="http://www.w3.org/2000/svg">
<rect width="32" height="32" fill="#F5F5F5"/>
<rect width="32" height="32" fill="#3A96DD"/>
<path d="M6.96383 6.54V6.26H9.57383V6.54L8.55383 6.62C8.54716 7.06667 8.5405 7.52 8.53383 7.98C8.53383 8.44 8.53383 8.9 8.53383 9.36V9.9C8.53383 10.36 8.53383 10.82 8.53383 11.28C8.5405 11.7333 8.54716 12.1867 8.55383 12.64L9.57383 12.72V13H6.96383V12.72L7.98383 12.64C7.9905 12.1867 7.99383 11.7167 7.99383 11.23C7.99383 10.7367 7.99383 10.2033 7.99383 9.63H4.27383C4.27383 10.25 4.27383 10.8 4.27383 11.28C4.28049 11.7533 4.28716 12.2067 4.29383 12.64L5.31383 12.72V13H2.70383V12.72L3.72383 12.64C3.73049 12.1867 3.73383 11.7333 3.73383 11.28C3.73383 10.82 3.73383 10.36 3.73383 9.9V9.36C3.73383 8.9 3.73383 8.44333 3.73383 7.99C3.73383 7.53 3.73049 7.07333 3.72383 6.62L2.70383 6.54V6.26H5.31383V6.54L4.29383 6.62C4.28716 7.06667 4.28049 7.52 4.27383 7.98C4.27383 8.43333 4.27383 8.88 4.27383 9.32H7.99383C7.99383 8.83333 7.99383 8.37 7.99383 7.93C7.99383 7.48333 7.9905 7.04667 7.98383 6.62L6.96383 6.54ZM10.2938 7.95L10.3838 6.26H15.7738L15.8638 7.95H15.4938L15.3038 6.59H13.3638C13.3571 7.04333 13.3538 7.5 13.3538 7.96C13.3538 8.42 13.3538 8.88667 13.3538 9.36V9.9C13.3538 10.36 13.3538 10.82 13.3538 11.28C13.3538 11.7333 13.3571 12.1867 13.3638 12.64L14.4838 12.72V13H11.6738V12.72L12.7938 12.64C12.8004 12.1867 12.8038 11.7333 12.8038 11.28C12.8038 10.82 12.8038 10.36 12.8038 9.9V9.36C12.8038 8.89333 12.8038 8.43 12.8038 7.97C12.8038 7.50333 12.8004 7.04333 12.7938 6.59H10.8538L10.6638 7.95H10.2938ZM16.5005 13V12.72L17.4105 12.63V6.62L16.4405 6.54V6.26H17.9705L20.4605 12.24L22.8905 6.26H24.5205V6.54L23.5005 6.62C23.4939 7.06667 23.4905 7.52 23.4905 7.98C23.4905 8.44 23.4905 8.9 23.4905 9.36V9.9C23.4905 10.36 23.4905 10.82 23.4905 11.28C23.4905 11.7333 23.4939 12.1867 23.5005 12.64L24.5205 12.72V13H21.9505V12.72L22.9405 12.64C22.9472 12.1867 22.9505 11.7333 22.9505 11.28C22.9505 10.8267 22.9505 10.3867 22.9505 9.96L22.9705 6.98L20.5205 13H20.2405L17.7105 6.97L17.7605 9.23V12.63L18.7005 12.72V13H16.5005ZM25.5847 6.54V6.26H28.1947V6.54L27.1747 6.62C27.168 7.07333 27.1614 7.54333 27.1547 8.03C27.1547 8.51 27.1547 9.02667 27.1547 9.58V10.11C27.1547 10.4767 27.1547 10.8833 27.1547 11.33C27.1614 11.77 27.168 12.2167 27.1747 12.67H29.8647L30.0847 11.27H30.4647L30.3647 13H25.5847V12.72L26.6047 12.64C26.6114 12.1867 26.6147 11.7333 26.6147 11.28C26.6147 10.82 26.6147 10.36 26.6147 9.9V9.36C26.6147 8.9 26.6147 8.44 26.6147 7.98C26.6147 7.52 26.6114 7.06667 26.6047 6.62L25.5847 6.54ZM10.7325 22.42H11.1325C11.6059 22.42 11.9925 22.2933 12.2925 22.04C12.5925 21.7867 12.7425 21.4267 12.7425 20.96C12.7425 20.56 12.6259 20.2433 12.3925 20.01C12.1659 19.7767 11.8392 19.66 11.4125 19.66C11.1392 19.66 10.8759 19.7067 10.6225 19.8L10.4125 20.41C10.3725 20.5367 10.3259 20.63 10.2725 20.69C10.2192 20.7433 10.1425 20.77 10.0425 20.77C9.88921 20.77 9.78921 20.6933 9.74254 20.54C9.85587 20.1267 10.0759 19.8267 10.4025 19.64C10.7359 19.4533 11.0992 19.36 11.4925 19.36C12.0392 19.36 12.4725 19.51 12.7925 19.81C13.1125 20.1033 13.2725 20.4833 13.2725 20.95C13.2725 21.3233 13.1492 21.66 12.9025 21.96C12.6559 22.2533 12.3092 22.46 11.8625 22.58C12.3959 22.6533 12.7992 22.84 13.0725 23.14C13.3459 23.4333 13.4825 23.8133 13.4825 24.28C13.4825 24.6467 13.3892 24.97 13.2025 25.25C13.0225 25.53 12.7759 25.7467 12.4625 25.9C12.1492 26.0533 11.7892 26.13 11.3825 26.13C10.9225 26.13 10.5292 26.03 10.2025 25.83C9.88254 25.63 9.66254 25.3267 9.54254 24.92C9.59587 24.7533 9.70587 24.67 9.87254 24.67C9.96587 24.67 10.0359 24.7033 10.0825 24.77C10.1359 24.83 10.1859 24.9267 10.2325 25.06L10.4425 25.67C10.5759 25.7167 10.7092 25.7567 10.8425 25.79C10.9825 25.8167 11.1325 25.83 11.2925 25.83C11.8259 25.83 12.2325 25.69 12.5125 25.41C12.7992 25.1233 12.9425 24.7467 12.9425 24.28C12.9425 23.7867 12.7959 23.41 12.5025 23.15C12.2159 22.8833 11.7759 22.75 11.1825 22.75H10.7325V22.42ZM16.5442 25.83C16.8042 25.83 17.0375 25.7567 17.2442 25.61C17.4575 25.4633 17.6275 25.2567 17.7542 24.99C17.8808 24.7167 17.9442 24.4 17.9442 24.04C17.9442 23.5067 17.8208 23.1 17.5742 22.82C17.3275 22.54 16.9975 22.4 16.5842 22.4C16.3175 22.4 16.0608 22.4567 15.8142 22.57C15.5742 22.6833 15.3275 22.8733 15.0742 23.14C15.0675 23.2067 15.0608 23.2733 15.0542 23.34C15.0542 23.4 15.0542 23.4633 15.0542 23.53C15.0542 24.23 15.1842 24.79 15.4442 25.21C15.7042 25.6233 16.0708 25.83 16.5442 25.83ZM18.4742 24.02C18.4742 24.42 18.3842 24.78 18.2042 25.1C18.0242 25.42 17.7875 25.6733 17.4942 25.86C17.2075 26.04 16.8908 26.13 16.5442 26.13C16.1175 26.13 15.7508 26.02 15.4442 25.8C15.1442 25.58 14.9142 25.2733 14.7542 24.88C14.5942 24.48 14.5142 24.0167 14.5142 23.49C14.5142 22.9833 14.5975 22.5 14.7642 22.04C14.9375 21.58 15.1875 21.1633 15.5142 20.79C15.8408 20.41 16.2375 20.0967 16.7042 19.85C17.1775 19.6033 17.7108 19.44 18.3042 19.36L18.3542 19.58C17.3875 19.7867 16.6342 20.18 16.0942 20.76C15.5608 21.34 15.2308 22.0267 15.1042 22.82C15.5642 22.3 16.1042 22.04 16.7242 22.04C17.2708 22.04 17.6975 22.2233 18.0042 22.59C18.3175 22.95 18.4742 23.4267 18.4742 24.02ZM20.0058 22.76C20.0058 23.5333 20.0758 24.1433 20.2158 24.59C20.3558 25.0367 20.5358 25.3567 20.7558 25.55C20.9758 25.7367 21.2025 25.83 21.4358 25.83C21.6758 25.83 21.9025 25.7367 22.1158 25.55C22.3358 25.3567 22.5125 25.0367 22.6458 24.59C22.7858 24.1367 22.8558 23.5267 22.8558 22.76C22.8558 21.98 22.7858 21.3667 22.6458 20.92C22.5125 20.4667 22.3358 20.1433 22.1158 19.95C21.9025 19.7567 21.6758 19.66 21.4358 19.66C21.2025 19.66 20.9758 19.7567 20.7558 19.95C20.5358 20.1367 20.3558 20.4567 20.2158 20.91C20.0758 21.3633 20.0058 21.98 20.0058 22.76ZM21.4358 19.36C21.7758 19.36 22.0958 19.4733 22.3958 19.7C22.7025 19.9267 22.9492 20.29 23.1358 20.79C23.3225 21.29 23.4158 21.9467 23.4158 22.76C23.4158 23.5667 23.3225 24.22 23.1358 24.72C22.9492 25.2133 22.7025 25.5733 22.3958 25.8C22.0958 26.02 21.7758 26.13 21.4358 26.13C21.0958 26.13 20.7725 26.02 20.4658 25.8C20.1658 25.5733 19.9225 25.2133 19.7358 24.72C19.5492 24.22 19.4558 23.5667 19.4558 22.76C19.4558 21.9467 19.5492 21.29 19.7358 20.79C19.9225 20.29 20.1658 19.9267 20.4658 19.7C20.7725 19.4733 21.0958 19.36 21.4358 19.36Z" fill="black"/>
</svg>
